<svg version="1.1" xmlns="http://www.w3.org/2000/svg" viewBox="0 0 1485.0247354439819 510.34203040420385" width="1485.0247354439819" height="510.34203040420385" filter="invert(93%) hue-rotate(180deg)">
  <!-- svg-source:excalidraw -->
  
  <defs>
    <style class="style-fonts">
      @font-face {
        font-family: "Virgil";
        src: url("https://excalidraw.com/Virgil.woff2");
      }
      @font-face {
        font-family: "Cascadia";
        src: url("https://excalidraw.com/Cascadia.woff2");
      }
      @font-face {
        font-family: "Assistant";
        src: url("https://excalidraw.com/Assistant-Regular.woff2");
      }
    </style>
    
  </defs>
  <rect x="0" y="0" width="1485.0247354439819" height="510.34203040420385" fill="#ffffff"></rect><g stroke-linecap="round"><g transform="translate(14.035865913904274 445.12503502717146) rotate(0 708.3168737453326 0)"><path d="M-0.19 0.65 C236.2 0.66, 1181.17 -0.09, 1417.49 -0.14 M-1.75 -0.06 C234.63 0.16, 1180.44 1.62, 1416.99 1.33" stroke="#1e1e1e" stroke-width="1" fill="none"></path></g><g transform="translate(14.035865913904274 445.12503502717146) rotate(0 708.3168737453326 0)"><path d="M1393.5 9.87 C1399.94 9.39, 1403.99 7.84, 1416.99 1.33 M1393.5 9.87 C1401.61 7.11, 1409.67 4.22, 1416.99 1.33" stroke="#1e1e1e" stroke-width="1" fill="none"></path></g><g transform="translate(14.035865913904274 445.12503502717146) rotate(0 708.3168737453326 0)"><path d="M1393.5 -7.23 C1399.92 -3.82, 1403.97 -1.47, 1416.99 1.33 M1393.5 -7.23 C1401.74 -4.36, 1409.79 -1.6, 1416.99 1.33" stroke="#1e1e1e" stroke-width="1" fill="none"></path></g></g><mask></mask><g transform="translate(1413.3407602242553 465.34203040420385) rotate(0 30.84198760986328 17.5)"><text x="0" y="24.528" font-family="Virgil, Segoe UI Emoji" font-size="28px" fill="#1e1e1e" text-anchor="start" style="white-space: pre;" direction="ltr" dominant-baseline="alphabetic">Time</text></g><g stroke-linecap="round"><g transform="translate(14.035865913903933 209.7414459945735) rotate(0 81.59001705731151 0)"><path d="M0.36 -0.59 C27.46 -0.54, 135.12 -0.78, 162.16 -0.79 M-0.91 1.71 C26.59 1.99, 137.27 0.57, 164.34 0.34" stroke="#1e1e1e" stroke-width="1" fill="none"></path></g><g transform="translate(14.035865913903933 209.7414459945735) rotate(0 81.59001705731151 0)"><path d="M140.94 9.14 C146.25 5.03, 152.14 3.44, 164.34 0.34 M140.94 9.14 C146.33 6.57, 151.95 5.43, 164.34 0.34" stroke="#1e1e1e" stroke-width="1" fill="none"></path></g><g transform="translate(14.035865913903933 209.7414459945735) rotate(0 81.59001705731151 0)"><path d="M140.76 -7.96 C145.96 -7.52, 151.9 -4.58, 164.34 0.34 M140.76 -7.96 C146.28 -6.31, 151.95 -3.23, 164.34 0.34" stroke="#1e1e1e" stroke-width="1" fill="none"></path></g></g><mask></mask><g stroke-linecap="round" transform="translate(184.43625552032455 192.4125928142596) rotate(0 16.60681763113422 16.60681763113422)"><path d="M0.84 10 C0.84 10, 0.84 10, 0.84 10 M0.84 10 C0.84 10, 0.84 10, 0.84 10 M1.23 15.65 C4.02 12.39, 8.49 7.18, 13.7 1.31 M1.23 15.65 C5.4 10.6, 9.88 5.74, 13.7 1.31 M1.63 21.29 C5.92 16.84, 8.78 12.33, 20 0.16 M1.63 21.29 C8.48 13.69, 15.02 5.96, 20 0.16 M3.99 24.67 C9.39 18.87, 14.15 13.76, 23.01 2.78 M3.99 24.67 C11.37 16.28, 18.37 8.15, 23.01 2.78 M5.7 28.8 C11.96 19.74, 20.29 13.16, 26.69 4.65 M5.7 28.8 C12.78 20.46, 20.35 12.6, 26.69 4.65 M8.71 31.43 C14.36 26.45, 18.51 20.53, 30.36 6.52 M8.71 31.43 C13.71 25.86, 17.99 20.34, 30.36 6.52 M13.7 31.79 C20.27 25.89, 25.95 18.87, 31.42 11.41 M13.7 31.79 C20.24 24.36, 26.82 16.96, 31.42 11.41 M18.03 32.9 C23.05 28.66, 26.85 23.3, 33.12 15.54 M18.03 32.9 C22.91 27.5, 27.31 22.43, 33.12 15.54 M25.64 30.24 C27.19 28.62, 28.66 26.46, 29.58 25.71 M25.64 30.24 C26.48 29.19, 27.48 28.43, 29.58 25.71" stroke="#ced4da" stroke-width="0.5" fill="none"></path><path d="M19.66 0.22 C23.01 0.68, 27.36 3.51, 29.6 6.31 C31.85 9.11, 33.3 13.36, 33.15 17.02 C33 20.67, 31.07 25.61, 28.72 28.24 C26.36 30.87, 22.5 32.33, 19 32.8 C15.49 33.27, 10.69 32.97, 7.7 31.06 C4.71 29.15, 2.16 24.9, 1.04 21.37 C-0.09 17.83, -0.26 13.12, 0.97 9.85 C2.19 6.59, 5.12 3.34, 8.38 1.79 C11.64 0.24, 18.29 0.69, 20.5 0.54 C22.72 0.4, 21.73 0.58, 21.66 0.91 M20.53 0.82 C24.09 1.23, 28.26 2.75, 30.25 5.47 C32.24 8.18, 32.67 13.52, 32.47 17.09 C32.27 20.66, 31.25 24.32, 29.04 26.91 C26.83 29.49, 22.69 31.88, 19.2 32.59 C15.72 33.29, 11.21 32.8, 8.15 31.13 C5.08 29.47, 1.93 26.01, 0.81 22.58 C-0.31 19.15, -0.02 14.08, 1.4 10.55 C2.82 7.01, 6.28 3.19, 9.33 1.37 C12.37 -0.46, 17.89 -0.2, 19.68 -0.42 C21.48 -0.63, 20.06 -0.24, 20.09 0.09" stroke="#1e1e1e" stroke-width="1" fill="none"></path></g><g stroke-linecap="round"><g transform="translate(228.93454169863247 209.01941044539365) rotate(0 183.39702949165593 0)"><path d="M0.6 0.66 C61.83 0.98, 306.52 1.14, 367.62 0.93 M-0.54 -0.03 C60.57 0.05, 305.9 -0.78, 367.11 -0.71" stroke="#1e1e1e" stroke-width="1" fill="none"></path></g><g transform="translate(228.93454169863247 209.01941044539365) rotate(0 183.39702949165593 0)"><path d="M343.63 7.87 C352.41 6.36, 360.45 2.96, 367.11 -0.71 M343.63 7.87 C348.95 6.13, 356.24 4.41, 367.11 -0.71" stroke="#1e1e1e" stroke-width="1" fill="none"></path></g><g transform="translate(228.93454169863247 209.01941044539365) rotate(0 183.39702949165593 0)"><path d="M343.61 -9.23 C352.26 -5.2, 360.31 -3.07, 367.11 -0.71 M343.61 -9.23 C348.77 -6.71, 356.06 -4.18, 367.11 -0.71" stroke="#1e1e1e" stroke-width="1" fill="none"></path></g></g><mask></mask><g stroke-linecap="round" transform="translate(602.9489561737419 193.13462836343922) rotate(0 16.60681763113422 16.60681763113422)"><path d="M6.9 3.35 C6.9 3.35, 6.9 3.35, 6.9 3.35 M6.9 3.35 C6.9 3.35, 6.9 3.35, 6.9 3.35 M1.39 15.78 C6.07 10.82, 8.28 7.2, 14.51 0.69 M1.39 15.78 C4.21 12.02, 7.83 8.87, 14.51 0.69 M1.78 21.43 C5.78 16.56, 9.93 11.37, 19.5 1.05 M1.78 21.43 C6.88 16.13, 11.4 10.41, 19.5 1.05 M3.49 25.56 C8.1 19.14, 13.98 13.67, 23.17 2.92 M3.49 25.56 C8.27 19.61, 12.92 14.82, 23.17 2.92 M5.85 28.94 C10.3 22.4, 15.53 16.55, 26.85 4.79 M5.85 28.94 C13.85 20.56, 21.27 11.52, 26.85 4.79 M8.87 31.56 C17.11 23.74, 23.19 15.38, 29.87 7.41 M8.87 31.56 C13.75 26.21, 18.98 19.86, 29.87 7.41 M13.2 32.68 C18.08 27.27, 23.99 20.1, 31.57 11.55 M13.2 32.68 C17.57 27.67, 21.04 23.87, 31.57 11.55 M18.19 33.04 C23.96 26.93, 28.8 21.91, 33.28 15.68 M18.19 33.04 C23.32 26.96, 28.72 20.53, 33.28 15.68 M27.77 28.12 C28.9 27.17, 29.69 26.33, 31.71 23.59 M27.77 28.12 C28.94 26.9, 30.04 25.49, 31.71 23.59" stroke="#ced4da" stroke-width="0.5" fill="none"></path><path d="M17.82 -0.23 C21.27 0.03, 25.94 2.73, 28.55 5.38 C31.16 8.03, 33.25 12.2, 33.48 15.68 C33.71 19.16, 32.08 23.4, 29.93 26.24 C27.77 29.08, 24.04 31.76, 20.55 32.72 C17.06 33.67, 12.23 33.56, 9 31.95 C5.77 30.34, 2.5 26.41, 1.17 23.07 C-0.16 19.73, 0.03 15.26, 1.03 11.91 C2.04 8.56, 4.17 5, 7.22 2.98 C10.26 0.96, 17.06 0.19, 19.31 -0.22 C21.55 -0.62, 20.74 0.14, 20.68 0.55 M15.85 0.32 C19.33 -0.18, 24.65 0.6, 27.51 2.84 C30.37 5.08, 32.42 10.25, 33 13.77 C33.59 17.29, 32.73 20.82, 31.03 23.96 C29.33 27.1, 26.1 31.24, 22.81 32.62 C19.53 34, 14.81 33.39, 11.33 32.24 C7.86 31.1, 3.93 28.62, 1.98 25.76 C0.02 22.89, -1.09 18.61, -0.39 15.07 C0.3 11.54, 3.31 6.97, 6.12 4.55 C8.93 2.13, 14.82 1.21, 16.46 0.53 C18.11 -0.14, 15.97 0.37, 15.98 0.49" stroke="#1e1e1e" stroke-width="1" fill="none"></path></g><g stroke-linecap="round"><g transform="translate(642.2067937002848 211.90755264211282) rotate(0 77.97983931141255 0)"><path d="M-0.84 -0.43 C25.02 -0.72, 129.83 -1.12, 156 -1.07 M0.92 -1.7 C26.56 -1.93, 129.31 -0.57, 155.08 -0.09" stroke="#1e1e1e" stroke-width="1" fill="none"></path></g><g transform="translate(642.2067937002848 211.90755264211282) rotate(0 77.97983931141255 0)"><path d="M131.46 8.1 C139.41 5.32, 147.05 2.58, 155.08 -0.09 M131.46 8.1 C138.14 5.93, 144.89 4.18, 155.08 -0.09" stroke="#1e1e1e" stroke-width="1" fill="none"></path></g><g transform="translate(642.2067937002848 211.90755264211282) rotate(0 77.97983931141255 0)"><path d="M131.72 -8.99 C139.66 -5.48, 147.21 -1.91, 155.08 -0.09 M131.72 -8.99 C138.27 -6.19, 144.94 -2.96, 155.08 -0.09" stroke="#1e1e1e" stroke-width="1" fill="none"></path></g></g><mask></mask><g stroke-linecap="round"><g transform="translate(200.32103760227886 229.95844137160657) rotate(0 61.42847986549981 36.32559119036691)"><path d="M0.84 -0.82 C1.14 10.9, -18.18 56.94, 2 69.35 C22.18 81.77, 101.83 73.29, 121.93 73.68 M-0.18 1.37 C0.47 12.8, -16.53 55.63, 4.23 67.38 C24.98 79.14, 104.59 71.05, 124.34 71.87" stroke="#228be6" stroke-width="1" fill="none"></path></g><g transform="translate(200.32103760227886 229.95844137160657) rotate(0 61.42847986549981 36.32559119036691)"><path d="M101.1 81.1 C107.19 76.47, 116.42 73.53, 124.34 71.87 M101.1 81.1 C109.11 76.89, 118.51 75.16, 124.34 71.87" stroke="#228be6" stroke-width="1" fill="none"></path></g><g transform="translate(200.32103760227886 229.95844137160657) rotate(0 61.42847986549981 36.32559119036691)"><path d="M100.61 64.01 C106.71 64.8, 116.1 67.29, 124.34 71.87 M100.61 64.01 C108.77 66.39, 118.36 71.25, 124.34 71.87" stroke="#228be6" stroke-width="1" fill="none"></path></g></g><mask></mask><g stroke-linecap="round" transform="translate(328.12132980709436 284.1111075600875) rotate(0 16.60681763113422 16.60681763113422)"><path d="M4.96 5.64 C4.96 5.64, 4.96 5.64, 4.96 5.64 M4.96 5.64 C4.96 5.64, 4.96 5.64, 4.96 5.64 M0.76 16.56 C4.63 11.65, 9.32 7.26, 14.54 0.71 M0.76 16.56 C4.27 12.21, 7.98 8.07, 14.54 0.71 M1.81 21.45 C6.69 16.54, 10.71 11.72, 18.87 1.83 M1.81 21.45 C6.45 15.85, 11.75 10.48, 18.87 1.83 M3.52 25.59 C7.52 20.72, 14.36 14.99, 23.2 2.94 M3.52 25.59 C9.24 19.48, 14.77 13.45, 23.2 2.94 M6.54 28.21 C13.84 18.95, 21.78 9.43, 26.88 4.81 M6.54 28.21 C13.96 19.17, 21.95 10.32, 26.88 4.81 M10.21 30.08 C16.06 24.15, 22.71 16.37, 29.24 8.19 M10.21 30.08 C17.64 22.02, 24.71 12.65, 29.24 8.19 M13.23 32.7 C18.52 26.11, 25.51 19.29, 32.26 10.82 M13.23 32.7 C19.12 25.5, 24.62 19.06, 32.26 10.82 M18.88 32.31 C23.31 27.25, 27.38 22.75, 32.65 16.46 M18.88 32.31 C24.02 27.03, 28.31 21.87, 32.65 16.46" stroke="#ced4da" stroke-width="0.5" fill="none"></path><path d="M14.01 -0.05 C17.33 -0.63, 22.64 1.09, 25.69 3.01 C28.74 4.94, 31.29 8.26, 32.28 11.51 C33.27 14.77, 33.02 19.19, 31.63 22.54 C30.23 25.9, 26.98 29.97, 23.92 31.64 C20.87 33.32, 16.65 33.44, 13.29 32.58 C9.94 31.72, 6.07 29.33, 3.8 26.49 C1.52 23.65, -0.52 18.98, -0.35 15.53 C-0.19 12.09, 2.18 8.35, 4.8 5.83 C7.41 3.3, 13.52 1.33, 15.35 0.37 C17.19 -0.59, 15.89 -0.15, 15.78 0.06 M17.25 0.5 C20.62 0.23, 25.07 1.62, 27.76 3.96 C30.45 6.3, 32.89 11.1, 33.39 14.54 C33.89 17.99, 32.58 21.58, 30.77 24.62 C28.96 27.66, 25.78 31.51, 22.52 32.78 C19.26 34.06, 14.57 33.71, 11.21 32.26 C7.86 30.82, 4.34 27.21, 2.41 24.09 C0.49 20.96, -0.95 16.95, -0.34 13.52 C0.27 10.08, 3.2 5.62, 6.07 3.46 C8.94 1.31, 15.12 1.18, 16.89 0.57 C18.66 -0.03, 16.58 -0.35, 16.69 -0.14" stroke="#228be6" stroke-width="1" fill="none"></path></g><g transform="translate(182.47568987765095 313.54341825677125) rotate(0 54.57197570800781 35.00000000000003)"><text x="0" y="24.528" font-family="Virgil, Segoe UI Emoji" font-size="28px" fill="#228be6" text-anchor="start" style="white-space: pre;" direction="ltr" dominant-baseline="alphabetic">Feature</text><text x="0" y="59.528" font-family="Virgil, Segoe UI Emoji" font-size="28px" fill="#228be6" text-anchor="start" style="white-space: pre;" direction="ltr" dominant-baseline="alphabetic">Branch</text></g><g stroke-linecap="round"><g transform="translate(369.8101787174782 304.51466413961805) rotate(0 50.27607713901318 0)"><path d="M0.6 0.28 C17.37 0.33, 84.26 0.64, 101.01 0.62 M-0.54 -0.62 C16.07 -0.96, 83.43 -1.55, 100.31 -1.18" stroke="#228be6" stroke-width="1" fill="none"></path></g><g transform="translate(369.8101787174782 304.51466413961805) rotate(0 50.27607713901318 0)"><path d="M76.78 7.28 C85.14 5.08, 93.61 2.45, 100.31 -1.18 M76.78 7.28 C85.03 5.53, 90.94 1.66, 100.31 -1.18" stroke="#228be6" stroke-width="1" fill="none"></path></g><g transform="translate(369.8101787174782 304.51466413961805) rotate(0 50.27607713901318 0)"><path d="M76.85 -9.82 C85.23 -6.27, 93.69 -3.14, 100.31 -1.18 M76.85 -9.82 C84.98 -6.19, 90.88 -4.68, 100.31 -1.18" stroke="#228be6" stroke-width="1" fill="none"></path></g></g><mask></mask><g stroke-linecap="round" transform="translate(476.86065293812254 285.55517865844706) rotate(0 16.60681763113422 16.60681763113422)"><path d="M4.33 6.42 C4.33 6.42, 4.33 6.42, 4.33 6.42 M4.33 6.42 C4.33 6.42, 4.33 6.42, 4.33 6.42 M0.14 17.34 C3.84 13.44, 7.47 8.5, 15.23 -0.01 M0.14 17.34 C5.53 11.08, 10.21 5.69, 15.23 -0.01 M1.84 21.48 C9.41 13.72, 14.51 6.46, 19.56 1.1 M1.84 21.48 C8.02 14.67, 14.18 7.53, 19.56 1.1 M3.55 25.61 C10.66 16.62, 17.42 8.39, 23.89 2.22 M3.55 25.61 C11.45 16.13, 19.1 6.97, 23.89 2.22 M6.57 28.24 C11.05 22.14, 17.34 17.14, 26.91 4.84 M6.57 28.24 C12.58 21.87, 18.49 14.8, 26.91 4.84 M9.59 30.86 C17.52 20.57, 25.2 12.01, 29.93 7.46 M9.59 30.86 C15.89 23.71, 22.53 16.47, 29.93 7.46 M13.26 32.73 C19.49 26.05, 23.65 19.89, 32.29 10.84 M13.26 32.73 C19.18 25.89, 25.04 19.04, 32.29 10.84 M18.91 32.33 C23.72 27.46, 26.68 23.73, 32.68 16.49 M18.91 32.33 C23.67 27.22, 28.25 21.71, 32.68 16.49" stroke="#ced4da" stroke-width="0.5" fill="none"></path><path d="M13.91 -0.15 C17.12 -0.83, 21.68 0.82, 24.78 2.59 C27.89 4.37, 31.28 7.2, 32.54 10.51 C33.81 13.82, 33.65 19.02, 32.38 22.44 C31.1 25.86, 28.05 29.28, 24.89 31.02 C21.74 32.75, 16.95 33.5, 13.46 32.84 C9.97 32.18, 6.26 29.78, 3.95 27.07 C1.65 24.37, -0.42 20.03, -0.37 16.61 C-0.33 13.18, 1.85 9.23, 4.24 6.53 C6.64 3.82, 12.2 1.42, 13.99 0.39 C15.79 -0.65, 15.05 0.05, 15.03 0.32 M19.51 -0.13 C22.69 0.31, 26.39 3.18, 28.74 5.91 C31.09 8.63, 33.4 12.56, 33.6 16.23 C33.8 19.9, 32.15 25.18, 29.92 27.93 C27.68 30.67, 23.89 32.08, 20.19 32.68 C16.49 33.29, 10.83 33.39, 7.72 31.58 C4.62 29.76, 2.59 25.11, 1.56 21.79 C0.53 18.48, 0.43 14.84, 1.54 11.67 C2.64 8.51, 5.23 4.75, 8.2 2.78 C11.18 0.82, 17.44 0.15, 19.37 -0.12 C21.31 -0.39, 19.92 0.93, 19.83 1.16" stroke="#228be6" stroke-width="1" fill="none"></path></g><g stroke-linecap="round"><g transform="translate(523.0021053514229 306.1141826030193) rotate(0 48.42275275515482 -38.87606213832578)"><path d="M0.75 -0.26 C14.58 -1.15, 68.24 6.72, 84.15 -6.37 C100.07 -19.46, 94.19 -67.1, 96.25 -78.81 M-0.32 -1.44 C13.29 -2.07, 67.48 7.76, 83.4 -5.01 C99.31 -17.78, 92.97 -65.79, 95.18 -78.06" stroke="#228be6" stroke-width="1" fill="none"></path></g><g transform="translate(523.0021053514229 306.1141826030193) rotate(0 48.42275275515482 -38.87606213832578)"><path d="M103.09 -54.34 C99.73 -63.06, 96.47 -74.02, 95.18 -78.06 M103.09 -54.34 C101.44 -59.79, 99.65 -65.04, 95.18 -78.06" stroke="#228be6" stroke-width="1" fill="none"></path></g><g transform="translate(523.0021053514229 306.1141826030193) rotate(0 48.42275275515482 -38.87606213832578)"><path d="M85.99 -54.8 C89.39 -63.44, 92.89 -74.23, 95.18 -78.06 M85.99 -54.8 C87.96 -60.31, 89.78 -65.46, 95.18 -78.06" stroke="#228be6" stroke-width="1" fill="none"></path></g></g><mask></mask><g transform="translate(548.6448983365703 306.15191594528767) rotate(0 101.98996734619135 52.49999999999997)"><text x="0" y="24.528" font-family="Virgil, Segoe UI Emoji" font-size="28px" fill="#228be6" text-anchor="start" style="white-space: pre;" direction="ltr" dominant-baseline="alphabetic">Merge Request</text><text x="0" y="59.528" font-family="Virgil, Segoe UI Emoji" font-size="28px" fill="#228be6" text-anchor="start" style="white-space: pre;" direction="ltr" dominant-baseline="alphabetic">and</text><text x="0" y="94.52799999999999" font-family="Virgil, Segoe UI Emoji" font-size="28px" fill="#228be6" text-anchor="start" style="white-space: pre;" direction="ltr" dominant-baseline="alphabetic">Review</text></g><g stroke-linecap="round"><g transform="translate(13.124617422683002 76.00913695944541) rotate(0 698.6640003024268 0)"><path d="M0.59 -1.05 C233.15 -1.08, 1163.45 -0.96, 1396.22 -0.83 M-0.56 1.01 C232.28 1.17, 1165.52 0.29, 1398.34 0.28" stroke="#e8590c" stroke-width="1" fill="none"></path></g><g transform="translate(13.124617422683002 76.00913695944541) rotate(0 698.6640003024268 0)"><path d="M1374.86 8.84 C1381.88 3.69, 1390.99 2.17, 1398.34 0.28 M1374.86 8.84 C1382.38 6.62, 1387.06 4.59, 1398.34 0.28" stroke="#e8590c" stroke-width="1" fill="none"></path></g><g transform="translate(13.124617422683002 76.00913695944541) rotate(0 698.6640003024268 0)"><path d="M1374.85 -8.26 C1381.79 -7.06, 1390.89 -2.22, 1398.34 0.28 M1374.85 -8.26 C1382.43 -5.69, 1387.12 -2.93, 1398.34 0.28" stroke="#e8590c" stroke-width="1" fill="none"></path></g></g><mask></mask><g stroke-linecap="round"><g transform="translate(642.2067937002846 211.18551709293308) rotate(0 37.5458485573468 -62.817092778638084)"><path d="M0.89 -0.62 C10.23 -2.76, 43.6 7.47, 55.99 -13.33 C68.37 -34.14, 72.17 -106.61, 75.21 -125.43 M-0.11 1.67 C9.06 -0.74, 42.43 6.07, 54.86 -14.88 C67.3 -35.82, 71.32 -105.58, 74.51 -124" stroke="#e8590c" stroke-width="1" fill="none"></path></g><g transform="translate(642.2067937002846 211.18551709293308) rotate(0 37.5458485573468 -62.817092778638084)"><path d="M80.22 -99.67 C77.62 -107.26, 78.84 -113.58, 74.51 -124 M80.22 -99.67 C78.03 -106.81, 76.99 -115.24, 74.51 -124" stroke="#e8590c" stroke-width="1" fill="none"></path></g><g transform="translate(642.2067937002846 211.18551709293308) rotate(0 37.5458485573468 -62.817092778638084)"><path d="M63.24 -101.69 C65.57 -108.82, 71.73 -114.55, 74.51 -124 M63.24 -101.69 C66.41 -108.11, 70.76 -115.9, 74.51 -124" stroke="#e8590c" stroke-width="1" fill="none"></path></g></g><mask></mask><g stroke-linecap="round" transform="translate(801.7766500690084 190.2464861667205) rotate(0 16.606817631134163 16.60681763113422)"><path d="M8.18 1.81 C8.18 1.81, 8.18 1.81, 8.18 1.81 M8.18 1.81 C8.18 1.81, 8.18 1.81, 8.18 1.81 M1.36 15.76 C6.07 11.52, 9.25 5.82, 13.82 1.42 M1.36 15.76 C6.1 10.92, 9.75 5.74, 13.82 1.42 M1.75 21.4 C7.81 13.51, 15.47 5.34, 19.47 1.02 M1.75 21.4 C8.94 13.04, 15.41 5.49, 19.47 1.02 M3.46 25.53 C10.67 17.18, 18.96 7.02, 23.14 2.89 M3.46 25.53 C8.01 20.67, 12.48 14.93, 23.14 2.89 M6.48 28.16 C14.07 18.21, 22.87 9.37, 26.82 4.76 M6.48 28.16 C13.19 20.29, 20.12 11.85, 26.82 4.76 M8.84 31.54 C17.13 22.5, 26.13 12.95, 30.49 6.63 M8.84 31.54 C14.29 25.91, 19.56 19.36, 30.49 6.63 M13.17 32.65 C17.25 28.45, 22.02 23.63, 31.54 11.52 M13.17 32.65 C17.27 27.66, 21.11 22.75, 31.54 11.52 M18.16 33.01 C23.47 26.88, 27.66 21.52, 33.25 15.65 M18.16 33.01 C23.01 27.78, 27.01 22.83, 33.25 15.65 M25.11 31.11 C27.18 28.85, 29.28 26.58, 31.02 24.31 M25.11 31.11 C27.16 28.5, 29.4 26.02, 31.02 24.31" stroke="#ced4da" stroke-width="0.5" fill="none"></path><path d="M18.94 0.62 C22.4 0.86, 27.07 2.78, 29.44 5.45 C31.81 8.11, 33.13 12.88, 33.17 16.59 C33.21 20.29, 31.91 24.92, 29.68 27.66 C27.45 30.4, 23.34 32.39, 19.81 33.02 C16.28 33.65, 11.58 33.17, 8.52 31.43 C5.45 29.7, 2.67 25.99, 1.43 22.61 C0.2 19.24, 0 14.61, 1.09 11.17 C2.19 7.74, 4.82 3.82, 8.01 2.01 C11.21 0.19, 18.09 0.44, 20.26 0.3 C22.42 0.16, 21 0.85, 21.01 1.17 M19.08 -0.29 C22.61 -0.12, 27.17 2.6, 29.6 5.34 C32.02 8.09, 33.69 12.55, 33.63 16.17 C33.58 19.78, 31.63 24.2, 29.28 27.02 C26.92 29.84, 22.91 32.3, 19.5 33.08 C16.08 33.86, 11.79 33.34, 8.81 31.71 C5.84 30.07, 3.06 26.59, 1.64 23.29 C0.23 19.99, -0.81 15.29, 0.3 11.89 C1.42 8.48, 5.23 4.86, 8.34 2.88 C11.44 0.9, 17.17 0.35, 18.95 0.02 C20.73 -0.32, 19.06 0.67, 19.03 0.86" stroke="#1e1e1e" stroke-width="1" fill="none"></path></g><g stroke-linecap="round"><g transform="translate(819.03668051512 225.24620109488768) rotate(0 61.41939264039024 36.93767052554779)"><path d="M-0.53 -0.31 C-0.1 11.08, -16.57 56.31, 3.79 68.56 C24.15 80.8, 101.88 72.19, 121.65 73.18 M1.39 -1.52 C1.64 10.01, -17.12 57.22, 3.3 69.83 C23.72 82.44, 104.07 73.73, 123.91 74.13" stroke="#228be6" stroke-width="1" fill="none"></path></g><g transform="translate(819.03668051512 225.24620109488768) rotate(0 61.41939264039024 36.93767052554779)"><path d="M100.79 83.64 C109.45 81.41, 118.31 74.19, 123.91 74.13 M100.79 83.64 C105.44 82.13, 111.68 77.99, 123.91 74.13" stroke="#228be6" stroke-width="1" fill="none"></path></g><g transform="translate(819.03668051512 225.24620109488768) rotate(0 61.41939264039024 36.93767052554779)"><path d="M100.09 66.56 C109.06 71.12, 118.2 70.69, 123.91 74.13 M100.09 66.56 C104.84 69.17, 111.24 69.17, 123.91 74.13" stroke="#228be6" stroke-width="1" fill="none"></path></g></g><mask></mask><g transform="translate(825.9065492215934 319.1485558305231) rotate(0 54.57197570800781 35)"><text x="0" y="24.528" font-family="Virgil, Segoe UI Emoji" font-size="28px" fill="#228be6" text-anchor="start" style="white-space: pre;" direction="ltr" dominant-baseline="alphabetic">New</text><text x="0" y="59.528" font-family="Virgil, Segoe UI Emoji" font-size="28px" fill="#228be6" text-anchor="start" style="white-space: pre;" direction="ltr" dominant-baseline="alphabetic">Feature</text></g><g stroke-linecap="round" transform="translate(950.0784652111686 284.3576237412854) rotate(0 16.606817631134163 16.60681763113422)"><path d="M5.81 3.73 C5.81 3.73, 5.81 3.73, 5.81 3.73 M5.81 3.73 C5.81 3.73, 5.81 3.73, 5.81 3.73 M0.96 15.41 C3.21 12.94, 6.75 8.01, 13.42 1.07 M0.96 15.41 C3.56 12.16, 5.9 9.5, 13.42 1.07 M1.35 21.05 C5.86 15.75, 12.56 9.48, 19.07 0.67 M1.35 21.05 C6.62 14.91, 12.57 8.9, 19.07 0.67 M2.4 25.94 C6.73 20.71, 13.15 14.08, 22.74 2.54 M2.4 25.94 C9.6 17.6, 16.92 9.16, 22.74 2.54 M5.42 28.56 C13.82 19.32, 20.66 10.59, 27.07 3.66 M5.42 28.56 C13.84 19.33, 20.97 10, 27.07 3.66 M8.44 31.19 C14.86 24.05, 21.3 16.3, 29.43 7.04 M8.44 31.19 C12.99 25.73, 18.69 19.51, 29.43 7.04 M12.12 33.06 C19.91 24.5, 26.63 14.79, 31.14 11.17 M12.12 33.06 C19.26 25.1, 26.23 17.13, 31.14 11.17 M17.76 32.66 C21.53 28.49, 24.36 24.09, 33.5 14.55 M17.76 32.66 C21.74 29.01, 24.54 24.36, 33.5 14.55 M26.68 28.49 C28.27 26.86, 29.61 25.46, 31.93 22.46 M26.68 28.49 C28.28 26.66, 29.96 24.55, 31.93 22.46" stroke="#ced4da" stroke-width="0.5" fill="none"></path><path d="M16.9 -0.1 C20.43 -0.16, 25.29 2.05, 27.91 4.42 C30.54 6.79, 32.17 10.69, 32.65 14.12 C33.14 17.56, 32.52 22.05, 30.81 25.02 C29.09 27.98, 25.76 30.65, 22.37 31.91 C18.98 33.16, 13.9 33.72, 10.47 32.55 C7.04 31.38, 3.47 28.02, 1.78 24.88 C0.09 21.73, -0.37 17.21, 0.32 13.67 C1 10.13, 2.97 5.98, 5.89 3.64 C8.81 1.29, 15.74 0.15, 17.84 -0.37 C19.94 -0.89, 18.51 0.11, 18.46 0.49 M16.55 -0.14 C20.02 -0.1, 25.17 2.31, 27.98 4.66 C30.79 7.01, 32.96 10.48, 33.39 13.97 C33.83 17.47, 32.58 22.54, 30.59 25.64 C28.6 28.73, 24.72 31.55, 21.46 32.53 C18.19 33.5, 14.25 32.68, 11.01 31.47 C7.77 30.27, 3.92 28.17, 2.01 25.29 C0.1 22.42, -1.05 17.81, -0.45 14.24 C0.15 10.66, 2.74 6.23, 5.61 3.84 C8.48 1.46, 14.82 0.53, 16.78 -0.05 C18.73 -0.64, 17.36 -0.01, 17.35 0.34" stroke="#228be6" stroke-width="1" fill="none"></path></g><g stroke-linecap="round"><g transform="translate(991.7673141215523 304.76118032081587) rotate(0 50.27607713901318 0)"><path d="M0.07 -1.03 C16.7 -1.08, 83.27 -0.21, 99.98 0.14 M-1.36 1.04 C15.05 1.17, 81.93 2.04, 98.73 1.75" stroke="#228be6" stroke-width="1" fill="none"></path></g><g transform="translate(991.7673141215523 304.76118032081587) rotate(0 50.27607713901318 0)"><path d="M75.23 10.3 C80.92 6.62, 90.32 4.47, 98.73 1.75 M75.23 10.3 C84.71 6.99, 93.38 4.37, 98.73 1.75" stroke="#228be6" stroke-width="1" fill="none"></path></g><g transform="translate(991.7673141215523 304.76118032081587) rotate(0 50.27607713901318 0)"><path d="M75.23 -6.8 C80.99 -5.06, 90.39 -1.8, 98.73 1.75 M75.23 -6.8 C84.84 -3.41, 93.51 0.66, 98.73 1.75" stroke="#228be6" stroke-width="1" fill="none"></path></g></g><mask></mask><g stroke-linecap="round" transform="translate(1098.8177883421968 285.8016948396449) rotate(0 16.606817631134277 16.60681763113422)"><path d="M5.24 4.56 C5.24 4.56, 5.24 4.56, 5.24 4.56 M5.24 4.56 C5.24 4.56, 5.24 4.56, 5.24 4.56 M1.05 15.48 C5.13 9.93, 11.2 4.17, 13.51 1.14 M1.05 15.48 C4.04 11.73, 7.34 8.23, 13.51 1.14 M2.1 20.37 C8.58 13.86, 14.2 5.23, 18.5 1.5 M2.1 20.37 C7.2 13.85, 13.11 7.45, 18.5 1.5 M2.49 26.02 C10.32 17.39, 17.8 9.05, 22.83 2.62 M2.49 26.02 C9 18.67, 15.42 11.99, 22.83 2.62 M6.17 27.89 C12.47 21.09, 17.26 15.78, 27.16 3.73 M6.17 27.89 C12.42 20.46, 18.84 13.83, 27.16 3.73 M9.18 30.51 C15.83 23.06, 23.21 13.07, 29.52 7.11 M9.18 30.51 C17.23 21.91, 24.56 13.17, 29.52 7.11 M12.2 33.13 C19.06 25.26, 24.98 19.43, 31.89 10.49 M12.2 33.13 C17.11 26.65, 23.2 20.84, 31.89 10.49 M17.85 32.74 C21.31 27.28, 26.32 23.93, 33.59 14.63 M17.85 32.74 C23.56 26.25, 29.47 19.64, 33.59 14.63 M23.49 32.34 C26.12 29.67, 28.15 26.35, 32.02 22.53 M23.49 32.34 C26.31 29.6, 28.88 26.15, 32.02 22.53" stroke="#ced4da" stroke-width="0.5" fill="none"></path><path d="M15.42 0.19 C18.7 -0.27, 23.62 1.21, 26.56 3.27 C29.51 5.32, 32.33 8.97, 33.1 12.52 C33.86 16.08, 32.88 21.33, 31.15 24.59 C29.42 27.85, 25.97 30.73, 22.74 32.07 C19.5 33.42, 15.13 33.75, 11.74 32.66 C8.36 31.56, 4.35 28.61, 2.44 25.52 C0.53 22.44, -0.18 17.65, 0.3 14.15 C0.77 10.64, 2.63 6.81, 5.3 4.49 C7.97 2.17, 14.38 0.93, 16.32 0.24 C18.26 -0.44, 17 0.15, 16.94 0.36 M16.23 0.08 C19.46 -0.3, 23.72 1.78, 26.38 3.97 C29.03 6.16, 31.28 9.95, 32.15 13.22 C33.03 16.48, 33.16 20.35, 31.61 23.56 C30.07 26.77, 26.34 30.88, 22.89 32.48 C19.44 34.08, 14.37 34.3, 10.92 33.16 C7.47 32.02, 3.96 28.77, 2.16 25.65 C0.36 22.53, -0.51 17.98, 0.12 14.43 C0.74 10.89, 3.3 6.74, 5.91 4.4 C8.52 2.06, 14.19 0.97, 15.75 0.37 C17.32 -0.22, 15.31 0.67, 15.3 0.84" stroke="#228be6" stroke-width="1" fill="none"></path></g><g stroke-linecap="round"><g transform="translate(1144.9592407554971 306.36069878421716) rotate(0 48.42275275515476 -38.87606213832578)"><path d="M-0.24 1.1 C13.97 -0.07, 68.47 6.3, 84.72 -6.86 C100.97 -20.03, 95.28 -66.21, 97.26 -77.9 M-1.83 0.63 C12.36 -0.42, 67.83 7.12, 84.26 -5.76 C100.68 -18.64, 94.63 -64.42, 96.71 -76.66" stroke="#228be6" stroke-width="1" fill="none"></path></g><g transform="translate(1144.9592407554971 306.36069878421716) rotate(0 48.42275275515476 -38.87606213832578)"><path d="M104.61 -52.95 C104.42 -57.39, 99.22 -64.23, 96.71 -76.66 M104.61 -52.95 C101.62 -60.19, 100.95 -67.19, 96.71 -76.66" stroke="#228be6" stroke-width="1" fill="none"></path></g><g transform="translate(1144.9592407554971 306.36069878421716) rotate(0 48.42275275515476 -38.87606213832578)"><path d="M87.52 -53.42 C91.64 -57.71, 90.74 -64.42, 96.71 -76.66 M87.52 -53.42 C89.44 -60.63, 93.68 -67.5, 96.71 -76.66" stroke="#228be6" stroke-width="1" fill="none"></path></g></g><mask></mask><g stroke-linecap="round"><g transform="translate(843.3315400439749 207.76190054953167) rotate(0 187.5298109508742 0)"><path d="M0.48 1.02 C62.85 0.83, 312.76 0.14, 375.28 0.05 M-0.72 0.5 C61.41 1.03, 311.8 1.97, 374.45 1.62" stroke="#1e1e1e" stroke-width="1" fill="none"></path></g><g transform="translate(843.3315400439749 207.76190054953167) rotate(0 187.5298109508742 0)"><path d="M350.96 10.17 C361.76 7.1, 369.34 4.33, 374.45 1.62 M350.96 10.17 C358.02 7.6, 366.67 3.97, 374.45 1.62" stroke="#1e1e1e" stroke-width="1" fill="none"></path></g><g transform="translate(843.3315400439749 207.76190054953167) rotate(0 187.5298109508742 0)"><path d="M350.96 -6.93 C361.92 -3.31, 369.5 0.6, 374.45 1.62 M350.96 -6.93 C358.15 -3.7, 366.8 -1.53, 374.45 1.62" stroke="#1e1e1e" stroke-width="1" fill="none"></path></g></g><mask></mask><g stroke-linecap="round" transform="translate(1224.8894818883407 188.8024150683608) rotate(0 16.606817631134163 16.60681763113422)"><path d="M3.35 6.89 C3.35 6.89, 3.35 6.89, 3.35 6.89 M3.35 6.89 C3.35 6.89, 3.35 6.89, 3.35 6.89 M-0.19 17.06 C4.62 12.15, 8.53 6.91, 14.24 0.45 M-0.19 17.06 C5.36 10.68, 11 4.48, 14.24 0.45 M1.51 21.19 C5.01 16.75, 10.64 10.92, 18.57 1.57 M1.51 21.19 C5.85 15.32, 10.86 10.48, 18.57 1.57 M3.22 25.32 C9.57 17.95, 15.41 11.48, 23.56 1.93 M3.22 25.32 C9.54 18.07, 15.06 11.82, 23.56 1.93 M5.58 28.7 C11.61 21.12, 19.4 13.41, 26.58 4.55 M5.58 28.7 C11.76 22, 18.36 14.97, 26.58 4.55 M9.26 30.57 C13.1 26.39, 17.85 20.32, 29.6 7.18 M9.26 30.57 C14.79 24.78, 19.34 18.66, 29.6 7.18 M12.93 32.44 C17.04 26.13, 22.04 21.54, 31.96 10.56 M12.93 32.44 C18.55 25.82, 24.18 18.93, 31.96 10.56 M17.26 33.56 C21.86 27.39, 27.5 22, 33.01 15.44 M17.26 33.56 C20.71 29.48, 23.27 26.52, 33.01 15.44 M24.22 31.65 C27.52 28, 30.22 24.22, 32.75 21.84 M24.22 31.65 C26.98 28.28, 30.15 24.65, 32.75 21.84" stroke="#ced4da" stroke-width="0.5" fill="none"></path><path d="M12.23 0.24 C15.4 -0.83, 20.68 -0.01, 23.91 1.58 C27.14 3.17, 30.14 6.44, 31.6 9.79 C33.07 13.15, 33.64 18.23, 32.71 21.73 C31.78 25.22, 28.93 28.89, 26.02 30.78 C23.11 32.66, 18.78 33.5, 15.23 33.06 C11.69 32.61, 7.36 30.59, 4.76 28.1 C2.16 25.62, -0.17 21.71, -0.37 18.13 C-0.57 14.56, 1.31 9.56, 3.57 6.63 C5.82 3.71, 11.4 1.62, 13.16 0.58 C14.92 -0.46, 14 0.22, 14.12 0.41 M12.87 0.05 C15.99 -0.59, 21.14 0.68, 24.43 2.56 C27.71 4.44, 31.41 8.11, 32.6 11.32 C33.8 14.52, 32.88 18.61, 31.6 21.79 C30.33 24.96, 27.79 28.53, 24.95 30.36 C22.11 32.18, 17.93 33.15, 14.55 32.75 C11.16 32.36, 7 30.74, 4.64 27.98 C2.29 25.22, 0.55 19.94, 0.4 16.19 C0.26 12.45, 1.57 8.28, 3.79 5.52 C6.01 2.75, 12.05 0.48, 13.7 -0.38 C15.35 -1.24, 13.63 0.1, 13.68 0.38" stroke="#1e1e1e" stroke-width="1" fill="none"></path></g><g transform="translate(740.4036283887301 91.32761592909503) rotate(0 91.06995391845703 35)"><text x="0" y="24.528" font-family="Virgil, Segoe UI Emoji" font-size="28px" fill="#e8590c" text-anchor="start" style="white-space: pre;" direction="ltr" dominant-baseline="alphabetic">Fast-forward</text><text x="0" y="59.528" font-family="Virgil, Segoe UI Emoji" font-size="28px" fill="#e8590c" text-anchor="start" style="white-space: pre;" direction="ltr" dominant-baseline="alphabetic">Merge</text></g><g stroke-linecap="round"><g transform="translate(1265.0501799276824 207.42297843564336) rotate(0 76.31139679582566 0)"><path d="M-0.85 1.04 C24.6 0.98, 127.43 0.72, 153.07 0.64 M0.91 0.54 C26.2 0.66, 127.1 -0.82, 152.36 -1.14" stroke="#1e1e1e" stroke-width="1" fill="none"></path></g><g transform="translate(1265.0501799276824 207.42297843564336) rotate(0 76.31139679582566 0)"><path d="M128.99 7.73 C138.46 5.68, 145.61 2.63, 152.36 -1.14 M128.99 7.73 C136.95 4.81, 146.24 0.66, 152.36 -1.14" stroke="#1e1e1e" stroke-width="1" fill="none"></path></g><g transform="translate(1265.0501799276824 207.42297843564336) rotate(0 76.31139679582566 0)"><path d="M128.76 -9.37 C138.45 -5.7, 145.68 -3.04, 152.36 -1.14 M128.76 -9.37 C136.87 -6.29, 146.25 -4.44, 152.36 -1.14" stroke="#1e1e1e" stroke-width="1" fill="none"></path></g></g><mask></mask><g transform="translate(1156.8351853535976 307.42484022396127) rotate(0 101.9899673461914 52.49999999999997)"><text x="0" y="24.528" font-family="Virgil, Segoe UI Emoji" font-size="28px" fill="#228be6" text-anchor="start" style="white-space: pre;" direction="ltr" dominant-baseline="alphabetic">Merge Request</text><text x="0" y="59.528" font-family="Virgil, Segoe UI Emoji" font-size="28px" fill="#228be6" text-anchor="start" style="white-space: pre;" direction="ltr" dominant-baseline="alphabetic">and</text><text x="0" y="94.52799999999999" font-family="Virgil, Segoe UI Emoji" font-size="28px" fill="#228be6" text-anchor="start" style="white-space: pre;" direction="ltr" dominant-baseline="alphabetic">Review</text></g><g stroke-linecap="round"><g transform="translate(9.703652618825402 469.6742436992827) rotate(0 2.842170943040401e-14 -230.3293401883395)"><path d="M0.88 -0.07 C0.75 -76.64, 0.49 -382.93, 0.3 -459.67" stroke="#1e1e1e" stroke-width="1.5" fill="none" stroke-dasharray="8 9"></path></g></g><mask></mask><g transform="translate(296.9803264705561 27.446193961905124) rotate(0 102.40995025634766 17.5)"><text x="0" y="24.528" font-family="Virgil, Segoe UI Emoji" font-size="28px" fill="#e8590c" text-anchor="start" style="white-space: pre;" direction="ltr" dominant-baseline="alphabetic">Staging Branch</text></g><g transform="translate(314.52175209985563 164.8040951257433) rotate(0 82.6839599609375 17.5)"><text x="0" y="24.528" font-family="Virgil, Segoe UI Emoji" font-size="28px" fill="#1e1e1e" text-anchor="start" style="white-space: pre;" direction="ltr" dominant-baseline="alphabetic">Main Branch</text></g><g stroke-linecap="round"><g stroke-opacity="0.5" fill-opacity="0.5" transform="translate(234.41003828615698 136.87010437167754) rotate(0 -14.886443635424655 21.88329053067949)"><path d="M0 0 C-4.96 7.29, -24.81 36.47, -29.77 43.77 M0 0 C-4.96 7.29, -24.81 36.47, -29.77 43.77" stroke="#343a40" stroke-width="1" fill="none"></path></g><g stroke-opacity="0.5" fill-opacity="0.5" transform="translate(234.41003828615698 136.87010437167754) rotate(0 -14.886443635424655 21.88329053067949)"><path d="M-23.63 19.53 C-25.09 25.3, -26.55 31.06, -29.77 43.77 M-23.63 19.53 C-25.62 27.38, -27.61 35.24, -29.77 43.77" stroke="#343a40" stroke-width="1" fill="none"></path></g><g stroke-opacity="0.5" fill-opacity="0.5" transform="translate(234.41003828615698 136.87010437167754) rotate(0 -14.886443635424655 21.88329053067949)"><path d="M-9.49 29.15 C-14.31 32.63, -19.14 36.1, -29.77 43.77 M-9.49 29.15 C-16.06 33.89, -22.63 38.62, -29.77 43.77" stroke="#343a40" stroke-width="1" fill="none"></path></g></g><mask></mask><g stroke-opacity="0.5" fill-opacity="0.5" transform="translate(227.38648111666276 107.70903789628505) rotate(0 32.47996520996094 12.5)"><text x="0" y="17.52" font-family="Virgil, Segoe UI Emoji" font-size="20px" fill="#343a40" text-anchor="start" style="white-space: pre;" direction="ltr" dominant-baseline="alphabetic">Commit</text></g><g stroke-linecap="round"><g stroke-opacity="0.5" fill-opacity="0.5" transform="translate(602.3905451066378 134.56734707869407) rotate(0 5.923200207481386 21.161254981499752)"><path d="M0 0 C1.97 7.05, 9.87 35.27, 11.85 42.32 M0 0 C1.97 7.05, 9.87 35.27, 11.85 42.32" stroke="#343a40" stroke-width="1" fill="none"></path></g><g stroke-opacity="0.5" fill-opacity="0.5" transform="translate(602.3905451066378 134.56734707869407) rotate(0 5.923200207481386 21.161254981499752)"><path d="M-0.96 24.46 C2.86 29.78, 6.67 35.11, 11.85 42.32 M-0.96 24.46 C2.19 28.85, 5.33 33.24, 11.85 42.32" stroke="#343a40" stroke-width="1" fill="none"></path></g><g stroke-opacity="0.5" fill-opacity="0.5" transform="translate(602.3905451066378 134.56734707869407) rotate(0 5.923200207481386 21.161254981499752)"><path d="M13.52 20.41 C13.02 26.94, 12.52 33.47, 11.85 42.32 M13.52 20.41 C13.11 25.79, 12.7 31.17, 11.85 42.32" stroke="#343a40" stroke-width="1" fill="none"></path></g></g><mask></mask><g stroke-opacity="0.5" fill-opacity="0.5" transform="translate(561.8945785082619 105.40628060330152) rotate(0 32.47996520996094 12.5)"><text x="0" y="17.52" font-family="Virgil, Segoe UI Emoji" font-size="20px" fill="#343a40" text-anchor="start" style="white-space: pre;" direction="ltr" dominant-baseline="alphabetic">Commit</text></g><g stroke-linecap="round"><g stroke-opacity="0.5" fill-opacity="0.5" transform="translate(357.60824307751096 384.3916470948871) rotate(0 -4.527722033276916 -27.017379545557844)"><path d="M0 0 C-1.51 -9.01, -7.55 -45.03, -9.06 -54.03 M0 0 C-1.51 -9.01, -7.55 -45.03, -9.06 -54.03" stroke="#343a40" stroke-width="1" fill="none"></path></g><g stroke-opacity="0.5" fill-opacity="0.5" transform="translate(357.60824307751096 384.3916470948871) rotate(0 -4.527722033276916 -27.017379545557844)"><path d="M3.26 -32.28 C-1.44 -40.58, -6.14 -48.88, -9.06 -54.03 M3.26 -32.28 C-1.2 -40.15, -5.65 -48.03, -9.06 -54.03" stroke="#343a40" stroke-width="1" fill="none"></path></g><g stroke-opacity="0.5" fill-opacity="0.5" transform="translate(357.60824307751096 384.3916470948871) rotate(0 -4.527722033276916 -27.017379545557844)"><path d="M-13.61 -29.45 C-11.87 -38.83, -10.13 -48.21, -9.06 -54.03 M-13.61 -29.45 C-11.96 -38.35, -10.31 -47.25, -9.06 -54.03" stroke="#343a40" stroke-width="1" fill="none"></path></g></g><mask></mask><g stroke-opacity="0.5" fill-opacity="0.5" transform="translate(323.622847278945 392.7764291768413) rotate(0 32.47996520996094 12.5)"><text x="0" y="17.52" font-family="Virgil, Segoe UI Emoji" font-size="20px" fill="#343a40" text-anchor="start" style="white-space: pre;" direction="ltr" dominant-baseline="alphabetic">Commit</text></g><g stroke-linecap="round"><g stroke-opacity="0.5" fill-opacity="0.5" transform="translate(477.9226077516253 383.24646861377727) rotate(0 7.847399190078363 -26.313557466267127)"><path d="M0 0 C2.62 -8.77, 13.08 -43.86, 15.69 -52.63 M0 0 C2.62 -8.77, 13.08 -43.86, 15.69 -52.63" stroke="#343a40" stroke-width="1" fill="none"></path></g><g stroke-opacity="0.5" fill-opacity="0.5" transform="translate(477.9226077516253 383.24646861377727) rotate(0 7.847399190078363 -26.313557466267127)"><path d="M17.17 -27.67 C16.62 -37.08, 16.06 -46.49, 15.69 -52.63 M17.17 -27.67 C16.72 -35.3, 16.27 -42.93, 15.69 -52.63" stroke="#343a40" stroke-width="1" fill="none"></path></g><g stroke-opacity="0.5" fill-opacity="0.5" transform="translate(477.9226077516253 383.24646861377727) rotate(0 7.847399190078363 -26.313557466267127)"><path d="M0.79 -32.56 C6.41 -40.12, 12.03 -47.69, 15.69 -52.63 M0.79 -32.56 C5.34 -38.69, 9.9 -44.83, 15.69 -52.63" stroke="#343a40" stroke-width="1" fill="none"></path></g></g><mask></mask><g stroke-opacity="0.5" fill-opacity="0.5" transform="translate(437.88236778554364 391.63125069573147) rotate(0 32.47996520996094 12.5)"><text x="0" y="17.52" font-family="Virgil, Segoe UI Emoji" font-size="20px" fill="#343a40" text-anchor="start" style="white-space: pre;" direction="ltr" dominant-baseline="alphabetic">Commit</text></g></svg>